<mxfile host="app.diagrams.net" modified="2022-04-19T13:28:57.584Z" agent="5.0 (Windows NT 10.0; Win64; x64) AppleWebKit/537.36 (KHTML, like Gecko) Chrome/100.0.4896.88 Safari/537.36" etag="A0-BNSM9KQ8fzTzf8OJ0" version="17.4.5" type="github">
  <diagram id="9hikQkzd9A8uJ14NhILh" name="Page-1">
    <mxGraphModel dx="1422" dy="1931" grid="1" gridSize="10" guides="1" tooltips="1" connect="1" arrows="1" fold="1" page="1" pageScale="1" pageWidth="827" pageHeight="1169" math="0" shadow="0">
      <root>
        <mxCell id="0" />
        <mxCell id="1" parent="0" />
        <mxCell id="71BVwWbTkxpX7U5o15dZ-1" value="Brütten Nete" style="text;html=1;strokeColor=none;fillColor=none;align=center;verticalAlign=middle;whiteSpace=wrap;rounded=0;strokeWidth=1;fontStyle=1;fontSize=30;" vertex="1" parent="1">
          <mxGeometry x="286" y="-1150" width="256" height="30" as="geometry" />
        </mxCell>
        <mxCell id="71BVwWbTkxpX7U5o15dZ-9" style="edgeStyle=orthogonalEdgeStyle;rounded=0;orthogonalLoop=1;jettySize=auto;html=1;fontSize=12;" edge="1" parent="1" source="71BVwWbTkxpX7U5o15dZ-2" target="71BVwWbTkxpX7U5o15dZ-8">
          <mxGeometry relative="1" as="geometry" />
        </mxCell>
        <mxCell id="71BVwWbTkxpX7U5o15dZ-2" value="Brüt Ücret=BR" style="rounded=0;whiteSpace=wrap;html=1;fontSize=12;strokeWidth=1;" vertex="1" parent="1">
          <mxGeometry x="46.5" y="-1050" width="110" height="60" as="geometry" />
        </mxCell>
        <mxCell id="71BVwWbTkxpX7U5o15dZ-12" style="edgeStyle=orthogonalEdgeStyle;rounded=0;orthogonalLoop=1;jettySize=auto;html=1;entryX=0;entryY=0.5;entryDx=0;entryDy=0;fontSize=13;" edge="1" parent="1" source="71BVwWbTkxpX7U5o15dZ-8" target="71BVwWbTkxpX7U5o15dZ-10">
          <mxGeometry relative="1" as="geometry" />
        </mxCell>
        <mxCell id="71BVwWbTkxpX7U5o15dZ-16" style="edgeStyle=orthogonalEdgeStyle;rounded=0;orthogonalLoop=1;jettySize=auto;html=1;fontSize=13;" edge="1" parent="1" source="71BVwWbTkxpX7U5o15dZ-8" target="71BVwWbTkxpX7U5o15dZ-15">
          <mxGeometry relative="1" as="geometry" />
        </mxCell>
        <mxCell id="71BVwWbTkxpX7U5o15dZ-8" value="&lt;span style=&quot;font-size: 13px&quot;&gt;Saatlik Ücret (SAÜ)&lt;br&gt;=BR/225&lt;/span&gt;" style="shape=parallelogram;perimeter=parallelogramPerimeter;whiteSpace=wrap;html=1;fixedSize=1;fontSize=12;strokeWidth=1;" vertex="1" parent="1">
          <mxGeometry x="226.5" y="-1050" width="150" height="60" as="geometry" />
        </mxCell>
        <mxCell id="71BVwWbTkxpX7U5o15dZ-14" style="edgeStyle=orthogonalEdgeStyle;rounded=0;orthogonalLoop=1;jettySize=auto;html=1;entryX=0;entryY=0.5;entryDx=0;entryDy=0;fontSize=13;" edge="1" parent="1" source="71BVwWbTkxpX7U5o15dZ-10" target="71BVwWbTkxpX7U5o15dZ-13">
          <mxGeometry relative="1" as="geometry" />
        </mxCell>
        <mxCell id="71BVwWbTkxpX7U5o15dZ-10" value="Günlük Ücret (GÜ)&lt;br&gt;=BR/30" style="shape=parallelogram;perimeter=parallelogramPerimeter;whiteSpace=wrap;html=1;fixedSize=1;fontSize=13;strokeWidth=1;" vertex="1" parent="1">
          <mxGeometry x="446.5" y="-1050" width="150" height="60" as="geometry" />
        </mxCell>
        <mxCell id="71BVwWbTkxpX7U5o15dZ-13" value="Haftalık Ücret (HÜ)&lt;br&gt;=BR/4" style="shape=parallelogram;perimeter=parallelogramPerimeter;whiteSpace=wrap;html=1;fixedSize=1;fontSize=13;strokeWidth=1;" vertex="1" parent="1">
          <mxGeometry x="636.5" y="-1050" width="150" height="60" as="geometry" />
        </mxCell>
        <mxCell id="71BVwWbTkxpX7U5o15dZ-28" style="edgeStyle=orthogonalEdgeStyle;rounded=0;orthogonalLoop=1;jettySize=auto;html=1;entryX=0;entryY=0.5;entryDx=0;entryDy=0;fontSize=13;" edge="1" parent="1" source="71BVwWbTkxpX7U5o15dZ-15" target="71BVwWbTkxpX7U5o15dZ-27">
          <mxGeometry relative="1" as="geometry" />
        </mxCell>
        <mxCell id="71BVwWbTkxpX7U5o15dZ-42" style="edgeStyle=orthogonalEdgeStyle;rounded=0;orthogonalLoop=1;jettySize=auto;html=1;entryX=1;entryY=0.5;entryDx=0;entryDy=0;fontSize=13;" edge="1" parent="1" source="71BVwWbTkxpX7U5o15dZ-15" target="71BVwWbTkxpX7U5o15dZ-41">
          <mxGeometry relative="1" as="geometry" />
        </mxCell>
        <mxCell id="71BVwWbTkxpX7U5o15dZ-15" value="Normal Mesai (NM)=(1.5*NM)*SAÜ" style="shape=parallelogram;perimeter=parallelogramPerimeter;whiteSpace=wrap;html=1;fixedSize=1;fontSize=13;strokeWidth=1;" vertex="1" parent="1">
          <mxGeometry x="202.5" y="-930" width="160" height="60" as="geometry" />
        </mxCell>
        <mxCell id="71BVwWbTkxpX7U5o15dZ-30" style="edgeStyle=orthogonalEdgeStyle;rounded=0;orthogonalLoop=1;jettySize=auto;html=1;entryX=0;entryY=0.5;entryDx=0;entryDy=0;fontSize=13;" edge="1" parent="1" source="71BVwWbTkxpX7U5o15dZ-27" target="71BVwWbTkxpX7U5o15dZ-29">
          <mxGeometry relative="1" as="geometry" />
        </mxCell>
        <mxCell id="71BVwWbTkxpX7U5o15dZ-27" value="&lt;span&gt;Hafta Tatili Mesai (HT)=(1.5*HT)*SAÜ&lt;/span&gt;" style="shape=parallelogram;perimeter=parallelogramPerimeter;whiteSpace=wrap;html=1;fixedSize=1;fontSize=13;strokeWidth=1;" vertex="1" parent="1">
          <mxGeometry x="416.5" y="-930" width="170" height="60" as="geometry" />
        </mxCell>
        <mxCell id="71BVwWbTkxpX7U5o15dZ-33" style="edgeStyle=orthogonalEdgeStyle;rounded=0;orthogonalLoop=1;jettySize=auto;html=1;entryX=0.5;entryY=0;entryDx=0;entryDy=0;fontSize=13;" edge="1" parent="1" source="71BVwWbTkxpX7U5o15dZ-29" target="71BVwWbTkxpX7U5o15dZ-32">
          <mxGeometry relative="1" as="geometry" />
        </mxCell>
        <mxCell id="71BVwWbTkxpX7U5o15dZ-29" value="&lt;span&gt;Resmi&lt;br&gt;&amp;nbsp;Bayram Tatili Mesai (RB)=(1*RB)*SAÜ&lt;/span&gt;" style="shape=parallelogram;perimeter=parallelogramPerimeter;whiteSpace=wrap;html=1;fixedSize=1;fontSize=13;strokeWidth=1;" vertex="1" parent="1">
          <mxGeometry x="622.5" y="-930" width="180" height="60" as="geometry" />
        </mxCell>
        <mxCell id="71BVwWbTkxpX7U5o15dZ-36" style="edgeStyle=orthogonalEdgeStyle;rounded=0;orthogonalLoop=1;jettySize=auto;html=1;entryX=1;entryY=0.5;entryDx=0;entryDy=0;fontSize=13;" edge="1" parent="1" source="71BVwWbTkxpX7U5o15dZ-32" target="71BVwWbTkxpX7U5o15dZ-35">
          <mxGeometry relative="1" as="geometry" />
        </mxCell>
        <mxCell id="71BVwWbTkxpX7U5o15dZ-32" value="&lt;span&gt;Dini&lt;br&gt;&amp;nbsp;Bayram Tatili Mesai (DB )=(1*DB)*SAÜ&lt;/span&gt;" style="shape=parallelogram;perimeter=parallelogramPerimeter;whiteSpace=wrap;html=1;fixedSize=1;fontSize=13;strokeWidth=1;" vertex="1" parent="1">
          <mxGeometry x="622.5" y="-810" width="180" height="60" as="geometry" />
        </mxCell>
        <mxCell id="71BVwWbTkxpX7U5o15dZ-37" style="edgeStyle=orthogonalEdgeStyle;rounded=0;orthogonalLoop=1;jettySize=auto;html=1;fontSize=13;entryX=1;entryY=0.5;entryDx=0;entryDy=0;" edge="1" parent="1" source="71BVwWbTkxpX7U5o15dZ-35" target="71BVwWbTkxpX7U5o15dZ-38">
          <mxGeometry relative="1" as="geometry">
            <mxPoint x="202.5" y="-780" as="targetPoint" />
          </mxGeometry>
        </mxCell>
        <mxCell id="71BVwWbTkxpX7U5o15dZ-35" value="Toplam Mesai (TM) =NM+HT+RB+DB" style="rounded=0;whiteSpace=wrap;html=1;fontSize=13;strokeWidth=1;" vertex="1" parent="1">
          <mxGeometry x="302.5" y="-810" width="210" height="60" as="geometry" />
        </mxCell>
        <mxCell id="71BVwWbTkxpX7U5o15dZ-44" style="edgeStyle=orthogonalEdgeStyle;rounded=0;orthogonalLoop=1;jettySize=auto;html=1;entryX=0.5;entryY=0;entryDx=0;entryDy=0;fontSize=13;" edge="1" parent="1" source="71BVwWbTkxpX7U5o15dZ-38" target="71BVwWbTkxpX7U5o15dZ-43">
          <mxGeometry relative="1" as="geometry" />
        </mxCell>
        <mxCell id="71BVwWbTkxpX7U5o15dZ-38" value="Toplam Brüt (TB)&lt;br&gt;=TB+BR" style="rounded=0;whiteSpace=wrap;html=1;fontSize=13;strokeWidth=1;" vertex="1" parent="1">
          <mxGeometry x="31.5" y="-810" width="140" height="60" as="geometry" />
        </mxCell>
        <mxCell id="71BVwWbTkxpX7U5o15dZ-41" value="Çalıştığı Gün Sayısı&lt;br&gt;(ÇGS)" style="rounded=0;whiteSpace=wrap;html=1;fontSize=13;strokeWidth=1;" vertex="1" parent="1">
          <mxGeometry x="26" y="-930" width="151" height="60" as="geometry" />
        </mxCell>
        <mxCell id="71BVwWbTkxpX7U5o15dZ-46" style="edgeStyle=orthogonalEdgeStyle;rounded=0;orthogonalLoop=1;jettySize=auto;html=1;fontSize=13;entryX=0;entryY=0.5;entryDx=0;entryDy=0;" edge="1" parent="1" source="71BVwWbTkxpX7U5o15dZ-43" target="71BVwWbTkxpX7U5o15dZ-50">
          <mxGeometry relative="1" as="geometry">
            <mxPoint x="292.5" y="-620" as="targetPoint" />
          </mxGeometry>
        </mxCell>
        <mxCell id="71BVwWbTkxpX7U5o15dZ-48" style="edgeStyle=orthogonalEdgeStyle;rounded=0;orthogonalLoop=1;jettySize=auto;html=1;fontSize=13;entryX=0.041;entryY=0.617;entryDx=0;entryDy=0;entryPerimeter=0;" edge="1" parent="1" source="71BVwWbTkxpX7U5o15dZ-43" target="71BVwWbTkxpX7U5o15dZ-54">
          <mxGeometry relative="1" as="geometry">
            <mxPoint x="102.5" y="-480" as="targetPoint" />
          </mxGeometry>
        </mxCell>
        <mxCell id="71BVwWbTkxpX7U5o15dZ-43" value="TB&amp;gt;37.530" style="rhombus;whiteSpace=wrap;html=1;fontSize=13;strokeWidth=1;" vertex="1" parent="1">
          <mxGeometry x="31.5" y="-680" width="141" height="120" as="geometry" />
        </mxCell>
        <mxCell id="71BVwWbTkxpX7U5o15dZ-45" style="edgeStyle=orthogonalEdgeStyle;rounded=0;orthogonalLoop=1;jettySize=auto;html=1;exitX=0.5;exitY=1;exitDx=0;exitDy=0;fontSize=13;" edge="1" parent="1" source="71BVwWbTkxpX7U5o15dZ-43" target="71BVwWbTkxpX7U5o15dZ-43">
          <mxGeometry relative="1" as="geometry" />
        </mxCell>
        <mxCell id="71BVwWbTkxpX7U5o15dZ-47" value="Evet&lt;br&gt;" style="text;html=1;align=center;verticalAlign=middle;resizable=0;points=[];autosize=1;strokeColor=none;fillColor=none;fontSize=13;" vertex="1" parent="1">
          <mxGeometry x="192.5" y="-640" width="40" height="20" as="geometry" />
        </mxCell>
        <mxCell id="71BVwWbTkxpX7U5o15dZ-49" value="Hayır&lt;br&gt;" style="text;html=1;align=center;verticalAlign=middle;resizable=0;points=[];autosize=1;strokeColor=none;fillColor=none;fontSize=13;rotation=0;" vertex="1" parent="1">
          <mxGeometry x="118.5" y="-560" width="50" height="20" as="geometry" />
        </mxCell>
        <mxCell id="71BVwWbTkxpX7U5o15dZ-53" style="edgeStyle=orthogonalEdgeStyle;rounded=0;orthogonalLoop=1;jettySize=auto;html=1;entryX=0;entryY=0.5;entryDx=0;entryDy=0;fontSize=15;" edge="1" parent="1" source="71BVwWbTkxpX7U5o15dZ-50" target="71BVwWbTkxpX7U5o15dZ-52">
          <mxGeometry relative="1" as="geometry" />
        </mxCell>
        <mxCell id="71BVwWbTkxpX7U5o15dZ-50" value="SGK İşçi Payı (SİP)&lt;br&gt;=((37530 * 0.14) / 30) * ÇGS" style="shape=parallelogram;perimeter=parallelogramPerimeter;whiteSpace=wrap;html=1;fixedSize=1;fontSize=15;strokeWidth=1;" vertex="1" parent="1">
          <mxGeometry x="302.5" y="-650" width="220" height="60" as="geometry" />
        </mxCell>
        <mxCell id="71BVwWbTkxpX7U5o15dZ-52" value="İşsizlik Sigorta İşçi Payı (İP)=&lt;br&gt;((37530 * 0.01) / 30) * ÇGS" style="shape=parallelogram;perimeter=parallelogramPerimeter;whiteSpace=wrap;html=1;fixedSize=1;fontSize=15;strokeWidth=1;" vertex="1" parent="1">
          <mxGeometry x="562.5" y="-650" width="240" height="60" as="geometry" />
        </mxCell>
        <mxCell id="71BVwWbTkxpX7U5o15dZ-56" style="edgeStyle=orthogonalEdgeStyle;rounded=0;orthogonalLoop=1;jettySize=auto;html=1;fontSize=15;" edge="1" parent="1" source="71BVwWbTkxpX7U5o15dZ-54" target="71BVwWbTkxpX7U5o15dZ-55">
          <mxGeometry relative="1" as="geometry" />
        </mxCell>
        <mxCell id="71BVwWbTkxpX7U5o15dZ-54" value="&lt;span&gt;SGK İşçi Payı (SİP)&lt;br&gt;=&lt;/span&gt;((TB* 0.14) / 30) * ÇGÜ" style="shape=parallelogram;perimeter=parallelogramPerimeter;whiteSpace=wrap;html=1;fixedSize=1;fontSize=15;strokeWidth=1;" vertex="1" parent="1">
          <mxGeometry x="156.5" y="-500" width="244" height="60" as="geometry" />
        </mxCell>
        <mxCell id="71BVwWbTkxpX7U5o15dZ-108" style="edgeStyle=orthogonalEdgeStyle;rounded=0;orthogonalLoop=1;jettySize=auto;html=1;fontSize=15;" edge="1" parent="1" source="71BVwWbTkxpX7U5o15dZ-55" target="71BVwWbTkxpX7U5o15dZ-62">
          <mxGeometry relative="1" as="geometry">
            <Array as="points">
              <mxPoint x="633" y="-420" />
              <mxPoint x="173" y="-420" />
            </Array>
          </mxGeometry>
        </mxCell>
        <mxCell id="71BVwWbTkxpX7U5o15dZ-55" value="İşsizlik Sigorta İşçi Payı (İP)=&lt;br&gt;((TB* 0.01 )/ 30) * ÇGS" style="shape=parallelogram;perimeter=parallelogramPerimeter;whiteSpace=wrap;html=1;fixedSize=1;fontSize=15;strokeWidth=1;" vertex="1" parent="1">
          <mxGeometry x="512.5" y="-500" width="240" height="60" as="geometry" />
        </mxCell>
        <mxCell id="71BVwWbTkxpX7U5o15dZ-60" style="edgeStyle=orthogonalEdgeStyle;rounded=0;orthogonalLoop=1;jettySize=auto;html=1;entryX=1;entryY=0.5;entryDx=0;entryDy=0;fontSize=15;" edge="1" parent="1" source="71BVwWbTkxpX7U5o15dZ-57" target="71BVwWbTkxpX7U5o15dZ-59">
          <mxGeometry relative="1" as="geometry" />
        </mxCell>
        <mxCell id="71BVwWbTkxpX7U5o15dZ-57" value="Asgari Brüt(ABÜ)&lt;br&gt;= 5004.0 TL" style="rounded=0;whiteSpace=wrap;html=1;fontSize=15;strokeWidth=1;" vertex="1" parent="1">
          <mxGeometry x="621.5" y="-385" width="131" height="70" as="geometry" />
        </mxCell>
        <mxCell id="71BVwWbTkxpX7U5o15dZ-64" style="edgeStyle=orthogonalEdgeStyle;rounded=0;orthogonalLoop=1;jettySize=auto;html=1;entryX=0.895;entryY=0.583;entryDx=0;entryDy=0;entryPerimeter=0;fontSize=15;" edge="1" parent="1" source="71BVwWbTkxpX7U5o15dZ-59" target="71BVwWbTkxpX7U5o15dZ-62">
          <mxGeometry relative="1" as="geometry" />
        </mxCell>
        <mxCell id="71BVwWbTkxpX7U5o15dZ-89" style="edgeStyle=orthogonalEdgeStyle;rounded=0;orthogonalLoop=1;jettySize=auto;html=1;fontSize=15;entryX=0.5;entryY=0;entryDx=0;entryDy=0;entryPerimeter=0;" edge="1" parent="1" source="71BVwWbTkxpX7U5o15dZ-59" target="71BVwWbTkxpX7U5o15dZ-91">
          <mxGeometry relative="1" as="geometry">
            <mxPoint x="453" y="-160" as="targetPoint" />
          </mxGeometry>
        </mxCell>
        <mxCell id="71BVwWbTkxpX7U5o15dZ-59" value="TB&amp;gt;ABÜ" style="rhombus;whiteSpace=wrap;html=1;fontSize=15;strokeWidth=1;" vertex="1" parent="1">
          <mxGeometry x="392.5" y="-410" width="120" height="120" as="geometry" />
        </mxCell>
        <mxCell id="71BVwWbTkxpX7U5o15dZ-65" style="edgeStyle=orthogonalEdgeStyle;rounded=0;orthogonalLoop=1;jettySize=auto;html=1;fontSize=15;" edge="1" parent="1" source="71BVwWbTkxpX7U5o15dZ-62" target="71BVwWbTkxpX7U5o15dZ-66">
          <mxGeometry relative="1" as="geometry">
            <mxPoint x="62.5" y="-270" as="targetPoint" />
          </mxGeometry>
        </mxCell>
        <mxCell id="71BVwWbTkxpX7U5o15dZ-62" value="Gelir Vergisi Matrahı(GVM)&lt;br&gt;=TB-SİP-İP" style="shape=parallelogram;perimeter=parallelogramPerimeter;whiteSpace=wrap;html=1;fixedSize=1;fontSize=15;strokeWidth=1;" vertex="1" parent="1">
          <mxGeometry x="62.5" y="-385" width="220" height="60" as="geometry" />
        </mxCell>
        <mxCell id="71BVwWbTkxpX7U5o15dZ-63" value="Evet" style="text;html=1;align=center;verticalAlign=middle;resizable=0;points=[];autosize=1;strokeColor=none;fillColor=none;fontSize=15;" vertex="1" parent="1">
          <mxGeometry x="317.5" y="-380" width="50" height="20" as="geometry" />
        </mxCell>
        <mxCell id="71BVwWbTkxpX7U5o15dZ-69" style="edgeStyle=orthogonalEdgeStyle;rounded=0;orthogonalLoop=1;jettySize=auto;html=1;entryX=0.547;entryY=0;entryDx=0;entryDy=0;entryPerimeter=0;fontSize=15;" edge="1" parent="1" source="71BVwWbTkxpX7U5o15dZ-66" target="71BVwWbTkxpX7U5o15dZ-67">
          <mxGeometry relative="1" as="geometry" />
        </mxCell>
        <mxCell id="71BVwWbTkxpX7U5o15dZ-66" value="Gelir Vergisi Kesintisi(GVK)&lt;br&gt;=GVM*0.15" style="shape=parallelogram;perimeter=parallelogramPerimeter;whiteSpace=wrap;html=1;fixedSize=1;fontSize=15;strokeWidth=1;" vertex="1" parent="1">
          <mxGeometry x="46.5" y="-270" width="216" height="60" as="geometry" />
        </mxCell>
        <mxCell id="71BVwWbTkxpX7U5o15dZ-72" style="edgeStyle=orthogonalEdgeStyle;rounded=0;orthogonalLoop=1;jettySize=auto;html=1;entryX=0.5;entryY=0;entryDx=0;entryDy=0;fontSize=15;" edge="1" parent="1" source="71BVwWbTkxpX7U5o15dZ-67" target="71BVwWbTkxpX7U5o15dZ-71">
          <mxGeometry relative="1" as="geometry" />
        </mxCell>
        <mxCell id="71BVwWbTkxpX7U5o15dZ-67" value="Asgari Ücret GVK(AÜGVK)&lt;br&gt;=AÜN*0.15" style="shape=parallelogram;perimeter=parallelogramPerimeter;whiteSpace=wrap;html=1;fixedSize=1;fontSize=15;strokeWidth=1;" vertex="1" parent="1">
          <mxGeometry x="36.5" y="-160" width="214" height="60" as="geometry" />
        </mxCell>
        <mxCell id="71BVwWbTkxpX7U5o15dZ-70" style="edgeStyle=orthogonalEdgeStyle;rounded=0;orthogonalLoop=1;jettySize=auto;html=1;entryX=0.5;entryY=1;entryDx=0;entryDy=0;fontSize=15;" edge="1" parent="1" source="71BVwWbTkxpX7U5o15dZ-68" target="71BVwWbTkxpX7U5o15dZ-57">
          <mxGeometry relative="1" as="geometry" />
        </mxCell>
        <mxCell id="71BVwWbTkxpX7U5o15dZ-68" value="Asgari Net(AÜN)&lt;br&gt;=4253,40" style="rounded=0;whiteSpace=wrap;html=1;fontSize=15;strokeWidth=1;" vertex="1" parent="1">
          <mxGeometry x="621.5" y="-260" width="131" height="70" as="geometry" />
        </mxCell>
        <mxCell id="71BVwWbTkxpX7U5o15dZ-74" style="edgeStyle=orthogonalEdgeStyle;rounded=0;orthogonalLoop=1;jettySize=auto;html=1;entryX=0.429;entryY=0.167;entryDx=0;entryDy=0;entryPerimeter=0;fontSize=15;" edge="1" parent="1" source="71BVwWbTkxpX7U5o15dZ-71" target="71BVwWbTkxpX7U5o15dZ-73">
          <mxGeometry relative="1" as="geometry" />
        </mxCell>
        <mxCell id="71BVwWbTkxpX7U5o15dZ-71" value="Ödenecek Gelir Vergisi(ÖGV)&lt;br&gt;=GVK-AÜGVK" style="shape=parallelogram;perimeter=parallelogramPerimeter;whiteSpace=wrap;html=1;fixedSize=1;fontSize=15;strokeWidth=1;" vertex="1" parent="1">
          <mxGeometry x="28.5" y="-50" width="230" height="60" as="geometry" />
        </mxCell>
        <mxCell id="71BVwWbTkxpX7U5o15dZ-76" style="edgeStyle=orthogonalEdgeStyle;rounded=0;orthogonalLoop=1;jettySize=auto;html=1;entryX=0.5;entryY=0;entryDx=0;entryDy=0;fontSize=15;" edge="1" parent="1" source="71BVwWbTkxpX7U5o15dZ-73" target="71BVwWbTkxpX7U5o15dZ-75">
          <mxGeometry relative="1" as="geometry" />
        </mxCell>
        <mxCell id="71BVwWbTkxpX7U5o15dZ-73" value="Asgari Ücret Damga Vergisi(AÜDV)&lt;br&gt;=&amp;nbsp;((ABÜ * 0.00759) / 30) * ÇGS" style="shape=parallelogram;perimeter=parallelogramPerimeter;whiteSpace=wrap;html=1;fixedSize=1;fontSize=15;strokeWidth=1;" vertex="1" parent="1">
          <mxGeometry x="24" y="70" width="278.5" height="60" as="geometry" />
        </mxCell>
        <mxCell id="71BVwWbTkxpX7U5o15dZ-78" style="edgeStyle=orthogonalEdgeStyle;rounded=0;orthogonalLoop=1;jettySize=auto;html=1;entryX=0.476;entryY=-0.017;entryDx=0;entryDy=0;entryPerimeter=0;fontSize=15;" edge="1" parent="1" source="71BVwWbTkxpX7U5o15dZ-75" target="71BVwWbTkxpX7U5o15dZ-77">
          <mxGeometry relative="1" as="geometry" />
        </mxCell>
        <mxCell id="71BVwWbTkxpX7U5o15dZ-80" style="edgeStyle=orthogonalEdgeStyle;rounded=0;orthogonalLoop=1;jettySize=auto;html=1;fontSize=15;entryX=1;entryY=0.5;entryDx=0;entryDy=0;" edge="1" parent="1" source="71BVwWbTkxpX7U5o15dZ-75" target="71BVwWbTkxpX7U5o15dZ-82">
          <mxGeometry relative="1" as="geometry">
            <mxPoint x="320" y="450" as="targetPoint" />
            <Array as="points">
              <mxPoint x="280" y="265" />
              <mxPoint x="280" y="530" />
            </Array>
          </mxGeometry>
        </mxCell>
        <mxCell id="71BVwWbTkxpX7U5o15dZ-75" value="TB&amp;gt;37.530" style="rhombus;whiteSpace=wrap;html=1;fontSize=15;strokeWidth=1;" vertex="1" parent="1">
          <mxGeometry x="70" y="200" width="137" height="130" as="geometry" />
        </mxCell>
        <mxCell id="71BVwWbTkxpX7U5o15dZ-77" value="Damga Vergisi (DV)&lt;br&gt;=37530*0.00759" style="shape=parallelogram;perimeter=parallelogramPerimeter;whiteSpace=wrap;html=1;fixedSize=1;fontSize=15;strokeWidth=1;" vertex="1" parent="1">
          <mxGeometry x="28.5" y="390" width="230" height="60" as="geometry" />
        </mxCell>
        <mxCell id="71BVwWbTkxpX7U5o15dZ-79" value="Evet" style="text;html=1;align=center;verticalAlign=middle;resizable=0;points=[];autosize=1;strokeColor=none;fillColor=none;fontSize=15;" vertex="1" parent="1">
          <mxGeometry x="138.25" y="340" width="50" height="20" as="geometry" />
        </mxCell>
        <mxCell id="71BVwWbTkxpX7U5o15dZ-81" value="Hayır" style="text;html=1;align=center;verticalAlign=middle;resizable=0;points=[];autosize=1;strokeColor=none;fillColor=none;fontSize=15;" vertex="1" parent="1">
          <mxGeometry x="225" y="240" width="50" height="20" as="geometry" />
        </mxCell>
        <mxCell id="71BVwWbTkxpX7U5o15dZ-84" style="edgeStyle=orthogonalEdgeStyle;rounded=0;orthogonalLoop=1;jettySize=auto;html=1;fontSize=15;" edge="1" parent="1" source="71BVwWbTkxpX7U5o15dZ-82" target="71BVwWbTkxpX7U5o15dZ-83">
          <mxGeometry relative="1" as="geometry" />
        </mxCell>
        <mxCell id="71BVwWbTkxpX7U5o15dZ-82" value="Damga Vergisi (DV)&lt;br&gt;=TB*0.00759" style="shape=parallelogram;perimeter=parallelogramPerimeter;whiteSpace=wrap;html=1;fixedSize=1;fontSize=15;strokeWidth=1;" vertex="1" parent="1">
          <mxGeometry x="28.5" y="500" width="230" height="60" as="geometry" />
        </mxCell>
        <mxCell id="71BVwWbTkxpX7U5o15dZ-87" style="edgeStyle=orthogonalEdgeStyle;rounded=0;orthogonalLoop=1;jettySize=auto;html=1;fontSize=15;" edge="1" parent="1" source="71BVwWbTkxpX7U5o15dZ-83" target="71BVwWbTkxpX7U5o15dZ-86">
          <mxGeometry relative="1" as="geometry" />
        </mxCell>
        <mxCell id="71BVwWbTkxpX7U5o15dZ-83" value="Ödenecek Damga Vergisi(ÖDV)&lt;br&gt;=DV-AÜDV" style="shape=parallelogram;perimeter=parallelogramPerimeter;whiteSpace=wrap;html=1;fixedSize=1;fontSize=15;strokeWidth=1;" vertex="1" parent="1">
          <mxGeometry x="10" y="610" width="240.5" height="60" as="geometry" />
        </mxCell>
        <mxCell id="71BVwWbTkxpX7U5o15dZ-85" value="Net Maaş (NM) &lt;br&gt;=((TB- TKV) / 30) * ÇGS" style="rounded=0;whiteSpace=wrap;html=1;fontSize=15;strokeWidth=1;" vertex="1" parent="1">
          <mxGeometry x="302.5" y="850" width="289.25" height="70" as="geometry" />
        </mxCell>
        <mxCell id="71BVwWbTkxpX7U5o15dZ-88" style="edgeStyle=orthogonalEdgeStyle;rounded=0;orthogonalLoop=1;jettySize=auto;html=1;entryX=0.41;entryY=-0.014;entryDx=0;entryDy=0;fontSize=15;entryPerimeter=0;" edge="1" parent="1" source="71BVwWbTkxpX7U5o15dZ-86" target="71BVwWbTkxpX7U5o15dZ-85">
          <mxGeometry relative="1" as="geometry" />
        </mxCell>
        <mxCell id="71BVwWbTkxpX7U5o15dZ-86" value="Toplam Kesilen Vergi(TKV)&lt;br&gt;=SİP+İP+ODV+ODGV" style="rounded=0;whiteSpace=wrap;html=1;fontSize=15;strokeWidth=1;" vertex="1" parent="1">
          <mxGeometry x="28.5" y="720" width="213" height="60" as="geometry" />
        </mxCell>
        <mxCell id="71BVwWbTkxpX7U5o15dZ-90" value="Hayır" style="text;html=1;align=center;verticalAlign=middle;resizable=0;points=[];autosize=1;strokeColor=none;fillColor=none;fontSize=15;" vertex="1" parent="1">
          <mxGeometry x="405" y="-230" width="50" height="20" as="geometry" />
        </mxCell>
        <mxCell id="71BVwWbTkxpX7U5o15dZ-93" style="edgeStyle=orthogonalEdgeStyle;rounded=0;orthogonalLoop=1;jettySize=auto;html=1;fontSize=15;" edge="1" parent="1" source="71BVwWbTkxpX7U5o15dZ-91" target="71BVwWbTkxpX7U5o15dZ-92">
          <mxGeometry relative="1" as="geometry" />
        </mxCell>
        <mxCell id="71BVwWbTkxpX7U5o15dZ-91" value="Gelir Vergisi Matrahı(GVM)&lt;br&gt;=TB-SİP-İP" style="shape=parallelogram;perimeter=parallelogramPerimeter;whiteSpace=wrap;html=1;fixedSize=1;fontSize=15;strokeWidth=1;" vertex="1" parent="1">
          <mxGeometry x="342.5" y="-160" width="220" height="60" as="geometry" />
        </mxCell>
        <mxCell id="71BVwWbTkxpX7U5o15dZ-95" style="edgeStyle=orthogonalEdgeStyle;rounded=0;orthogonalLoop=1;jettySize=auto;html=1;entryX=0.5;entryY=0;entryDx=0;entryDy=0;fontSize=15;" edge="1" parent="1" source="71BVwWbTkxpX7U5o15dZ-92" target="71BVwWbTkxpX7U5o15dZ-94">
          <mxGeometry relative="1" as="geometry" />
        </mxCell>
        <mxCell id="71BVwWbTkxpX7U5o15dZ-92" value="Gelir Vergisi Kesintisi(GVK)&lt;br&gt;=0" style="shape=parallelogram;perimeter=parallelogramPerimeter;whiteSpace=wrap;html=1;fixedSize=1;fontSize=15;strokeWidth=1;" vertex="1" parent="1">
          <mxGeometry x="344.5" y="-50" width="216" height="60" as="geometry" />
        </mxCell>
        <mxCell id="71BVwWbTkxpX7U5o15dZ-97" style="edgeStyle=orthogonalEdgeStyle;rounded=0;orthogonalLoop=1;jettySize=auto;html=1;entryX=0.463;entryY=-0.017;entryDx=0;entryDy=0;entryPerimeter=0;fontSize=15;" edge="1" parent="1" source="71BVwWbTkxpX7U5o15dZ-94" target="71BVwWbTkxpX7U5o15dZ-96">
          <mxGeometry relative="1" as="geometry" />
        </mxCell>
        <mxCell id="71BVwWbTkxpX7U5o15dZ-94" value="Asgari Ücret GVK(AÜGVK)&lt;br&gt;=AÜN*0.15" style="shape=parallelogram;perimeter=parallelogramPerimeter;whiteSpace=wrap;html=1;fixedSize=1;fontSize=15;strokeWidth=1;" vertex="1" parent="1">
          <mxGeometry x="345.5" y="60" width="214" height="60" as="geometry" />
        </mxCell>
        <mxCell id="71BVwWbTkxpX7U5o15dZ-99" style="edgeStyle=orthogonalEdgeStyle;rounded=0;orthogonalLoop=1;jettySize=auto;html=1;fontSize=15;entryX=0.5;entryY=0;entryDx=0;entryDy=0;" edge="1" parent="1" source="71BVwWbTkxpX7U5o15dZ-96" target="71BVwWbTkxpX7U5o15dZ-98">
          <mxGeometry relative="1" as="geometry">
            <mxPoint x="470" y="250" as="targetPoint" />
          </mxGeometry>
        </mxCell>
        <mxCell id="71BVwWbTkxpX7U5o15dZ-96" value="Ödenecek Gelir Vergisi(ÖGV)&lt;br&gt;=0" style="shape=parallelogram;perimeter=parallelogramPerimeter;whiteSpace=wrap;html=1;fixedSize=1;fontSize=15;strokeWidth=1;" vertex="1" parent="1">
          <mxGeometry x="345.5" y="160" width="230" height="60" as="geometry" />
        </mxCell>
        <mxCell id="71BVwWbTkxpX7U5o15dZ-101" style="edgeStyle=orthogonalEdgeStyle;rounded=0;orthogonalLoop=1;jettySize=auto;html=1;fontSize=15;" edge="1" parent="1" source="71BVwWbTkxpX7U5o15dZ-98" target="71BVwWbTkxpX7U5o15dZ-100">
          <mxGeometry relative="1" as="geometry" />
        </mxCell>
        <mxCell id="71BVwWbTkxpX7U5o15dZ-98" value="Asgari Ücret Damga Vergisi(AÜDV)&lt;br&gt;=&amp;nbsp;((ABÜ * 0.00759) / 30) * ÇGS" style="shape=parallelogram;perimeter=parallelogramPerimeter;whiteSpace=wrap;html=1;fixedSize=1;fontSize=15;strokeWidth=1;" vertex="1" parent="1">
          <mxGeometry x="321.25" y="260" width="278.5" height="60" as="geometry" />
        </mxCell>
        <mxCell id="71BVwWbTkxpX7U5o15dZ-103" style="edgeStyle=orthogonalEdgeStyle;rounded=0;orthogonalLoop=1;jettySize=auto;html=1;entryX=0.5;entryY=0;entryDx=0;entryDy=0;fontSize=15;" edge="1" parent="1" source="71BVwWbTkxpX7U5o15dZ-100" target="71BVwWbTkxpX7U5o15dZ-102">
          <mxGeometry relative="1" as="geometry" />
        </mxCell>
        <mxCell id="71BVwWbTkxpX7U5o15dZ-100" value="Damga Vergisi (DV)&lt;br&gt;=0" style="shape=parallelogram;perimeter=parallelogramPerimeter;whiteSpace=wrap;html=1;fixedSize=1;fontSize=15;strokeWidth=1;" vertex="1" parent="1">
          <mxGeometry x="345.5" y="380" width="230" height="60" as="geometry" />
        </mxCell>
        <mxCell id="71BVwWbTkxpX7U5o15dZ-105" style="edgeStyle=orthogonalEdgeStyle;rounded=0;orthogonalLoop=1;jettySize=auto;html=1;entryX=0.533;entryY=-0.05;entryDx=0;entryDy=0;entryPerimeter=0;fontSize=15;" edge="1" parent="1" source="71BVwWbTkxpX7U5o15dZ-102" target="71BVwWbTkxpX7U5o15dZ-104">
          <mxGeometry relative="1" as="geometry" />
        </mxCell>
        <mxCell id="71BVwWbTkxpX7U5o15dZ-102" value="Ödenecek Damga Vergisi(ÖDV)&lt;br&gt;=0" style="shape=parallelogram;perimeter=parallelogramPerimeter;whiteSpace=wrap;html=1;fixedSize=1;fontSize=15;strokeWidth=1;" vertex="1" parent="1">
          <mxGeometry x="340.25" y="500" width="240.5" height="60" as="geometry" />
        </mxCell>
        <mxCell id="71BVwWbTkxpX7U5o15dZ-107" style="edgeStyle=orthogonalEdgeStyle;rounded=0;orthogonalLoop=1;jettySize=auto;html=1;entryX=0.5;entryY=0;entryDx=0;entryDy=0;fontSize=15;" edge="1" parent="1" source="71BVwWbTkxpX7U5o15dZ-104" target="71BVwWbTkxpX7U5o15dZ-85">
          <mxGeometry relative="1" as="geometry">
            <mxPoint x="454.8834999999999" y="740" as="targetPoint" />
          </mxGeometry>
        </mxCell>
        <mxCell id="71BVwWbTkxpX7U5o15dZ-104" value="Toplam Kesilen Vergi(TKV)&lt;br&gt;=SİP+İP" style="rounded=0;whiteSpace=wrap;html=1;fontSize=15;strokeWidth=1;" vertex="1" parent="1">
          <mxGeometry x="347.5" y="610" width="213" height="60" as="geometry" />
        </mxCell>
      </root>
    </mxGraphModel>
  </diagram>
</mxfile>
